<svg width="56" height="75" viewBox="0 0 56 75" fill="none" xmlns="http://www.w3.org/2000/svg">
<path fill-rule="evenodd" clip-rule="evenodd" d="M30.8897 2.5415C29.9397 2.4441 28.9757 2.3942 28 2.3942C27.1161 2.3942 26.2419 2.43515 25.3789 2.51526L24.0112 7.73884C25.3067 7.51231 26.6396 7.3942 28 7.3942C29.4687 7.3942 30.9052 7.53185 32.2974 7.79497L30.8897 2.5415ZM34.692 8.38289C44.1306 11.2487 51 20.0192 51 30.3942C51 37.3656 47.8983 43.6127 42.9997 47.8306L44.4078 53.0856C51.4313 47.9981 56 39.7297 56 30.3942C56 16.7132 46.188 5.32382 33.2173 2.8794L34.692 8.38289ZM0 30.3942C0 16.4686 10.1659 4.91733 23.4813 2.75691L22.0647 8.16732C12.2388 10.7844 5 19.744 5 30.3942C5 36.6287 7.4806 42.2839 11.5087 46.4265L10.0742 51.9048C3.91758 46.7686 0 39.0389 0 30.3942ZM41.4838 49.0292L42.8519 54.1351C38.547 56.8339 33.4557 58.3942 28 58.3942C25.0156 58.3942 22.1403 57.9273 19.443 57.0625L20.7121 52.2156C23.0023 52.9801 25.4528 53.3942 28 53.3942C33.0367 53.3942 37.6953 51.7752 41.4838 49.0292ZM19.043 51.5849C16.822 50.6449 14.7794 49.366 12.9799 47.813L11.5982 53.0899C13.4897 54.4593 15.5592 55.5979 17.7653 56.4647L19.043 51.5849Z" fill="#F3A311"/>
<path d="M24.8038 2.11871L33.2787 2.11871L30.7344 8.36142L13.6249 72.215L6.42618 72.215L24.8038 2.11871Z" fill="#F3A311"/>
<path d="M24.3279 3.94809L31.5059 2.39421L42.459 54.05L35.1739 54.05L24.3279 3.94809Z" fill="#F3A311"/>
<rect x="18.3607" y="44.6237" width="7.34426" height="16.5246" transform="rotate(-90 18.3607 44.6237)" fill="#F3A311"/>
<path d="M41.7705 40.7221L31.0984 46.8836L31.0984 34.5605L41.7705 40.7221Z" fill="black"/>
<path fill-rule="evenodd" clip-rule="evenodd" d="M6.259 72.1647L5.96722 73.6912L13.4723 73.6912L13.7705 72.1647H6.259Z" fill="black"/>
</svg>
